<?xml version="1.0" encoding="UTF-8" standalone="no"?>
<svg
   width="100%"
   height="100%"
   viewBox="0 0 100 100"
   version="1.1"
   id="svg5"
   xmlns="http://www.w3.org/2000/svg"
   xmlns:svg="http://www.w3.org/2000/svg">
  <defs
     id="defs2">
    <rect
       x="218.56754"
       y="248.24956"
       width="319.7562"
       height="302.21683"
       id="rect44843" />
    <rect
       x="228.01181"
       y="259.043"
       width="308.96274"
       height="291.42337"
       id="rect5685" />
    <pattern
       patternUnits="userSpaceOnUse"
       width="377.95276"
       height="377.95276"
       patternTransform="translate(195.63144,214.51998)"
       id="pattern55913">
      <rect
         style="fill:#aa0000;stroke-width:3.60429"
         id="rect892"
         width="377.95276"
         height="377.95276"
         x="0"
         y="0" />
    </pattern>
  </defs>
  <g
     id="layer1"
     style="display:inline"
     transform="translate(-52.770481,-59.030159)">
    <path
       style="fill:#165016;stroke:none"
       width="100"
       height="100"
       x="52.770481"
       y="59.030159"
       id="rect55916"
       d="m 77.044519,59.030159 h 51.451921 c 13.44782,0 24.27404,10.826221 24.27404,24.274038 v 51.451923 c 0,13.44782 -10.82622,24.27404 -24.27404,24.27404 H 77.044519 c -13.447817,0 -24.274038,-10.82622 -24.274038,-24.27404 V 83.304197 c 0,-13.447817 10.826221,-24.274038 24.274038,-24.274038 z"
       ry="24.274038" />
  </g>
  <g
     id="layer4"
     transform="translate(-52.770481,-59.030159)">
    <path
       style="fill:none;stroke:#e1e1e1;stroke-width:1.62906;stroke-linecap:butt;stroke-linejoin:miter;stroke-miterlimit:4;stroke-dasharray:none;stroke-opacity:1"
       d="M 63.819584,146.78374 69.442846,128.82733 129.80137,65.446305 140.84985,76.116792 82.1867,140.5892 Z"
       id="path57875" />
  </g>
  <g
     id="layer5"
     transform="translate(-52.770481,-59.030159)">
    <path
       d="M 129.66169,73.417051 76.688974,128.89495 Z"
       style="fill:none;stroke:#e1e1e1;stroke-width:1.10186;stroke-linecap:butt;stroke-linejoin:miter;stroke-miterlimit:4;stroke-dasharray:none;stroke-opacity:1"
       id="path60098" />
    <path
       d="M 133.76552,76.501779 81.924575,131.86823 Z"
       style="fill:none;stroke:#e1e1e1;stroke-width:1.08893;stroke-linecap:butt;stroke-linejoin:miter;stroke-miterlimit:4;stroke-dasharray:none;stroke-opacity:1"
       id="path60098-2" />
  </g>
</svg>
